# xmcd
#
# Track frame offsets: 
#        150
#        12217
#        30765
#        49014
#        64307
#        80204
#        96878
#        113889
#        126038
#        148471
#        162629
#        178725
#        199204
#        216316
#        233651
#
# Disc length: 3367 seconds
#
# Revision: 0
# Processed by: cddbd v1.5.2PL0 Copyright (c) Steve Scherf et al.
# Submitted via: ExactAudioCopy v0.99pb4
#
DISCID=db0d250f
DTITLE=Miguel Gallardo - Tesoros de Colección [CD2)
DYEAR=2008
DGENRE=Ballad
TTITLE0=Muchachita de Ojos Tristes
TTITLE1=Hoy Tengo Ganas de Ti
TTITLE2=Como un Gondolier
TTITLE3=Vivir
TTITLE4=Corazón (Pearlydumm)
TTITLE5=Una Historia de Amor
TTITLE6=Es Demasiado Tarde Para Mí
TTITLE7=Te Acordarás de Mí
TTITLE8=Hoy Quiero Inventar una Caricia
TTITLE9=Sin Miedo
TTITLE10=Mal de Ti
TTITLE11=Se Va
TTITLE12=Hoy Tendrás Amor, Que Perdonarme
TTITLE13=Quiero Ser Tu Amante Nuevamente
TTITLE14=Dos Hombres y un Destino
EXTD=
EXTT0=
EXTT1=
EXTT2=
EXTT3=
EXTT4=
EXTT5=
EXTT6=
EXTT7=
EXTT8=
EXTT9=
EXTT10=
EXTT11=
EXTT12=
EXTT13=
EXTT14=
PLAYORDER=
